<svg xmlns="http://www.w3.org/2000/svg" xmlns:xlink="http://www.w3.org/1999/xlink" width="200mm" height="200mm" viewBox="0 0 200 200" version="1.1" id="svg889"><defs id="defs883"><linearGradient id="linearGradient964"><stop style="stop-color:#d6a4a4;stop-opacity:1" offset="0" id="stop960"/><stop style="stop-color:#dae2f8;stop-opacity:1" offset="1" id="stop962"/></linearGradient><linearGradient id="linearGradient929-0"><stop style="stop-color:#ddd6f3;stop-opacity:1" offset="0" id="stop925"/><stop style="stop-color:#faaca8;stop-opacity:1" offset="1" id="stop927"/></linearGradient><linearGradient id="linearGradient893"><stop style="stop-color:#eef2f3;stop-opacity:1" offset="0" id="stop889"/><stop style="stop-color:#8e9eab;stop-opacity:1" offset="1" id="stop891"/></linearGradient><rect x="45.12" y="21.55" width="31.09" height="50.38" id="rect1699"/><rect x="48.36" y="21.55" width="27.84" height="50.38" id="rect1693"/><rect x="116.42" y="23.81" width="5.29" height="18.52" id="rect1639"/><rect x="5.29" y="5.29" width="190.5" height="190.5" id="rect1629"/><rect x="5.29" y="5.29" width="190.5" height="190.5" id="rect1615"/><linearGradient xlink:href="#linearGradient893" id="linearGradient895" x1="76.92" y1="46.23" x2="133.74" y2="46.23" gradientUnits="userSpaceOnUse"/><linearGradient xlink:href="#linearGradient929-0" id="linearGradient931" x1="53.55" y1="68.36" x2="53.55" y2="23.27" gradientUnits="userSpaceOnUse"/><linearGradient xlink:href="#linearGradient964" id="linearGradient953" gradientUnits="userSpaceOnUse" x1="53.55" y1="68.36" x2="53.55" y2="23.27" gradientTransform="matrix(3.36945 0 0 3.48493 -133.5 -60.08)"/></defs><g id="layer1" style="display:inline"><rect style="display:none;opacity:1;fill:#999;fill-opacity:.762097;stroke-width:.277812;stroke-miterlimit:4;stroke-dasharray:none" id="rect2467" width="60" height="60" x="75.33" y="16.23"/><rect style="display:none;opacity:1;fill:#b51717;fill-opacity:.762097;stroke-width:.289999;stroke-miterlimit:4;stroke-dasharray:none" id="rect2469" width="24.16" height="45.09" x="104.79" y="23.68"/><g id="g2492" style="display:inline"><g aria-label="FFQ" transform="translate(51.24 .41)" id="text1697" style="font-style:normal;font-variant:normal;font-weight:400;font-stretch:normal;font-size:16.9333px;line-height:1.25;font-family:'Helvetica Neue';-inkscape-font-specification:'Helvetica Neue, Normal';font-variant-ligatures:normal;font-variant-caps:normal;font-variant-numeric:normal;font-variant-east-asian:normal;letter-spacing:-.978958px;writing-mode:tb-rl;direction:ltr;text-orientation:upright;white-space:pre;shape-inside:url(#rect1699);display:inline;opacity:1;fill:url(#linearGradient931);fill-opacity:1;stroke:none"><path id="path921" style="font-style:normal;font-variant:normal;font-weight:400;font-stretch:normal;font-size:16.9333px;font-family:'Helvetica Neue';-inkscape-font-specification:'Helvetica Neue, Normal';font-variant-ligatures:normal;font-variant-caps:normal;font-variant-numeric:normal;font-variant-east-asian:normal;writing-mode:tb-rl;direction:ltr;text-orientation:upright;display:inline;fill:url(#linearGradient953);fill-opacity:1;stroke-width:3.4267" d="M91.62 162.42l-2.85 3.42 4.5 3.72q-2.73 1.18-5.64 1.18-3.71 0-6.4-1.48-2.67-1.53-4.39-4.01-1.7-2.48-2.5-5.55-.8-3.12-.8-6.31 0-3.19.8-6.26.8-3.12 2.5-5.6 1.72-2.48 4.4-3.96 2.68-1.53 6.39-1.53 3.7 0 6.39 1.53 2.68 1.48 4.39 3.96 1.71 2.48 2.51 5.6.8 3.07.8 6.26 0 3.9-1.14 7.5-1.14 3.53-3.54 6.01zm11.98 15.64l2.74-3.55-5.36-4.36q3.08-3.19 4.62-7.56 1.54-4.36 1.54-9.2 0-4.3-1.26-8.26-1.2-4.02-3.65-7.08-2.45-3.07-6.1-4.9-3.65-1.83-8.5-1.83t-8.5 1.83q-3.66 1.83-6.1 4.9-2.46 3.06-3.72 7.08-1.2 3.95-1.2 8.26 0 4.3 1.2 8.32 1.26 3.95 3.71 7.02 2.45 3.07 6.1 4.9 3.66 1.77 8.5 1.77 5.66 0 9.76-2.48zM75.7 76.72v42.14h5.42v-19.3h18.72v-4.72H81.12v-13.4h21.34v-4.72zm0-55.6v42.14h5.42v-19.3h18.72v-4.72H81.12v-13.4h21.34v-4.72zm52.63-.09v157.12h16.16V21.03zm-175.3 0v157.12h16.16v-75.86h61.57v75.86h16.17V21.03H30.76v67H-30.8v-67z"/></g></g></g></svg>
